<?xml version="1.0" standalone="no"?>
<!DOCTYPE svg PUBLIC "-//W3C//DTD SVG 20010904//EN"
 "http://www.w3.org/TR/2001/REC-SVG-20010904/DTD/svg10.dtd">
<svg version="1.0" xmlns="http://www.w3.org/2000/svg"
 width="16.000000pt" height="16.000000pt" viewBox="0 0 16.000000 16.000000"
 preserveAspectRatio="xMidYMid meet">
<metadata>
Created by potrace 1.11, written by Peter Selinger 2001-2013
</metadata>
<g transform="translate(0.000000,16.000000) scale(0.006154,-0.006154)"
fill="#000000" stroke="none">
<path d="M1094 2438 c10 -16 11 -30 5 -45 -9 -25 -24 -28 -63 -13 -25 9 -26 8
-24 -22 3 -29 0 -32 -37 -41 -22 -5 -65 -27 -95 -48 -58 -41 -87 -48 -109 -26
-10 10 -12 8 -9 -8 3 -17 -2 -20 -30 -17 -30 2 -32 0 -22 -17 16 -31 13 -33
-49 -29 -33 2 -63 -1 -68 -5 -4 -5 -3 -7 2 -6 20 6 52 -12 65 -35 11 -22 10
-27 -16 -51 -37 -33 -119 -76 -129 -67 -3 4 -11 -1 -16 -10 -7 -13 -16 -15
-39 -8 -18 5 -30 5 -30 -1 0 -5 4 -9 8 -9 4 0 16 -14 25 -30 21 -35 8 -47 -35
-31 -43 16 -40 1 7 -41 25 -22 45 -44 45 -49 0 -4 -17 -11 -37 -15 l-38 -8 45
-10 c57 -14 110 -46 110 -66 0 -9 -9 -26 -21 -39 -19 -20 -23 -21 -42 -8 -21
14 -22 13 -22 -22 0 -27 -5 -38 -21 -45 -12 -5 -35 -38 -53 -73 -21 -44 -35
-61 -45 -57 -10 4 -16 -2 -18 -18 -2 -15 -9 -22 -19 -20 -13 2 -16 -5 -13 -28
3 -21 -1 -30 -11 -30 -8 0 -12 -6 -10 -12 9 -29 13 -78 5 -83 -4 -3 -13 2 -20
10 -23 27 -29 15 -15 -26 21 -58 19 -72 -5 -64 -18 6 -19 4 -10 -20 14 -36 13
-48 -3 -42 -10 4 -13 -2 -9 -19 2 -13 8 -27 13 -30 12 -7 12 -44 0 -44 -5 0
-14 7 -21 15 -21 25 -21 11 0 -30 24 -47 25 -71 4 -79 -12 -5 -11 -10 11 -33
35 -38 42 -70 19 -87 -17 -13 -17 -15 -1 -31 41 -40 54 -103 17 -80 -17 11
-11 -5 16 -40 27 -35 25 -59 -3 -48 -21 8 -17 3 69 -110 56 -74 66 -92 56
-104 -10 -12 -9 -17 5 -24 9 -6 17 -19 17 -30 0 -11 6 -22 14 -25 11 -4 13
-12 6 -30 -5 -13 -6 -23 -2 -23 4 1 18 1 31 0 21 -1 23 -4 17 -35 l-6 -33 57
9 c63 10 83 6 83 -16 0 -12 6 -13 27 -6 56 18 112 20 127 5 11 -12 30 -14 75
-9 49 4 61 2 61 -9 0 -11 9 -13 43 -6 30 6 44 4 51 -5 6 -9 22 -11 56 -5 26 4
67 6 91 4 137 -10 208 -19 248 -31 77 -24 192 -29 229 -10 18 9 35 16 39 16 5
0 8 6 9 13 1 19 16 51 27 58 5 4 25 5 43 3 28 -2 34 0 34 16 0 10 7 23 15 27
12 7 12 13 2 33 -9 17 -32 31 -81 48 -67 23 -70 23 -114 7 -49 -20 -132 -30
-132 -17 0 4 16 25 36 46 28 30 62 88 79 136 6 16 19 96 17 104 -2 5 6 6 17 3
13 -3 22 1 26 12 6 14 8 14 20 -2 9 -12 15 -14 20 -7 4 6 16 8 26 5 14 -5 20
-2 18 7 -3 26 1 39 11 33 5 -3 25 5 42 18 18 14 60 38 93 53 33 16 85 53 114
83 60 58 102 81 141 74 128 -20 241 -1 246 42 1 11 6 30 9 43 6 19 -1 32 -42
71 -53 51 -85 63 -145 54 -24 -3 -38 -1 -38 6 0 10 6 12 25 11 3 -1 27 10 53
24 26 13 55 27 65 30 49 16 37 87 -44 254 -65 135 -144 208 -274 254 l-70 25
-32 84 c-18 46 -32 96 -33 112 0 38 -16 34 -30 -8 -11 -33 -14 -35 -43 -30
-31 5 -33 4 -61 -60 -55 -125 -82 -132 -41 -11 29 87 33 143 14 233 -12 60
-13 61 -29 40 -17 -20 -17 -20 -22 14 -4 20 -14 53 -23 75 -17 39 -17 39 -27
14 -8 -22 -11 -23 -21 -9 -41 54 -62 73 -142 129 -50 35 -103 75 -119 89 -28
26 -29 26 -23 4 8 -34 -6 -36 -60 -9 -55 27 -129 56 -143 56 -6 0 -4 -10 4
-22z m-420 -470 c-19 -21 -19 -21 14 -15 45 9 38 -11 -14 -40 l-39 -23 33 0
c44 0 37 -23 -9 -31 l-34 -5 28 -14 c30 -15 34 -25 12 -34 -12 -4 -13 -10 -3
-32 11 -23 9 -28 -12 -45 -33 -25 -37 -24 -45 9 -3 15 -20 42 -38 60 -20 20
-26 32 -16 32 9 1 6 7 -10 20 -20 17 -21 21 -7 26 15 6 15 9 3 23 -28 32 -27
38 5 33 20 -3 29 -1 24 6 -3 6 6 13 23 17 16 3 44 17 62 31 37 27 52 16 23
-18z m1199 -147 c31 -67 33 -83 12 -75 -15 6 -75 103 -75 123 0 6 8 11 18 11
12 0 27 -19 45 -59z m-87 1 c43 -28 112 -208 94 -243 -14 -24 -42 -39 -76 -39
-17 0 -40 -11 -57 -27 l-29 -28 -24 28 c-13 15 -24 41 -24 56 0 37 47 188 72
229 21 33 26 36 44 24z m-232 -219 c-1 -21 -7 -37 -13 -36 -6 2 -8 -3 -5 -10
2 -7 -7 -19 -21 -27 -19 -10 -22 -16 -14 -27 9 -10 5 -15 -19 -24 -19 -6 -29
-16 -26 -24 7 -17 -45 -29 -88 -20 -25 6 -34 3 -47 -14 -14 -19 -20 -20 -55
-10 -64 18 -79 21 -125 23 -140 9 -334 -111 -411 -255 -47 -88 -61 -144 -65
-259 -4 -118 6 -200 40 -317 19 -64 14 -79 -10 -33 -32 62 -63 239 -60 351 3
175 47 283 155 390 112 111 241 160 405 154 84 -3 98 -1 122 18 16 12 31 25
34 31 4 5 14 6 23 3 11 -5 22 5 38 33 13 23 28 38 36 35 7 -2 15 2 19 11 3 8
11 13 18 10 7 -2 25 4 41 15 16 10 29 19 30 19 0 0 0 -17 -2 -37z m549 -60 c8
-10 18 -38 22 -63 4 -25 14 -53 22 -63 9 -9 14 -20 11 -22 -12 -13 -140 -11
-167 2 -31 15 -65 76 -56 102 7 22 82 60 121 60 17 1 38 -7 47 -16z m-282 -74
c29 -31 37 -63 19 -74 -16 -10 -11 -25 9 -25 10 0 30 -12 44 -26 15 -14 58
-36 99 -49 70 -23 74 -23 88 -6 35 41 57 44 116 17 58 -27 70 -42 60 -80 -9
-36 -56 -52 -118 -38 -64 15 -83 14 -38 -2 52 -19 34 -31 -39 -28 -54 2 -70
-1 -94 -18 l-29 -22 -29 28 c-28 27 -29 27 -69 11 -38 -15 -59 -9 -45 13 3 6
-1 11 -9 11 -36 3 -39 4 -43 16 -2 6 0 14 6 17 6 4 8 13 5 20 -3 7 2 18 10 25
13 11 12 15 -5 32 -11 11 -17 24 -14 28 6 11 -19 21 -52 21 -19 0 -24 4 -19
16 5 13 2 15 -14 11 -11 -3 -20 -2 -20 3 0 14 124 130 138 130 8 0 27 -14 43
-31z m-1421 -324 c15 9 23 -38 25 -150 4 -179 45 -300 138 -401 26 -28 47 -58
47 -66 0 -8 9 -23 20 -33 19 -17 19 -20 4 -42 -20 -32 -13 -38 27 -24 45 16
99 14 99 -3 0 -7 20 -19 45 -26 24 -7 42 -16 39 -21 -3 -5 2 -9 10 -9 23 0 20
-37 -3 -43 -13 -3 -22 3 -30 20 -7 15 -17 23 -25 20 -17 -7 -66 14 -66 28 0 5
-18 -9 -40 -30 -38 -37 -46 -36 -41 2 3 18 -6 16 -45 -8 -43 -26 -59 -17 -38
22 24 46 6 70 -33 46 -19 -12 -32 1 -27 26 11 46 9 50 -45 68 -66 23 -65 22
-51 48 8 16 8 21 -3 21 -7 0 -22 6 -32 14 -19 14 -19 15 -1 35 19 21 19 22 -2
44 -24 25 -20 40 6 29 12 -4 8 6 -11 31 -21 28 -24 37 -13 37 25 0 19 19 -19
57 -27 27 -33 39 -25 48 8 10 7 24 -5 50 -19 48 -19 48 10 41 l24 -6 -20 47
c-11 27 -27 55 -35 65 -20 21 0 35 23 17 14 -12 15 -7 9 56 l-7 70 41 -43 c23
-23 45 -40 50 -37z m1613 -40 c1 -5 -52 -22 -118 -38 -91 -22 -128 -27 -155
-21 -58 15 -40 26 45 29 47 1 104 11 140 23 63 21 85 23 88 7z m302 -6 c8 -8
-51 -8 -82 0 -2 1 -3 6 -3 12 0 13 69 3 85 -12z m-989 -50 c87 -42 155 -143
185 -277 8 -36 7 -49 -3 -57 -7 -5 -14 -26 -14 -45 -2 -48 -24 -130 -34 -130
-5 0 -11 -13 -15 -29 -4 -17 -14 -31 -27 -34 -11 -3 -17 -10 -14 -16 4 -6 -7
-25 -25 -43 -17 -18 -38 -46 -46 -62 -19 -36 -7 -46 55 -46 30 0 42 -4 40 -12
-6 -18 -57 -25 -106 -15 -35 7 -46 15 -58 41 -15 31 -15 34 10 71 27 39 33 65
16 65 -18 0 -11 20 15 44 14 13 25 29 25 35 0 7 10 25 22 41 17 24 19 32 8 45
-9 11 -10 22 -2 42 6 16 14 45 18 66 5 33 4 37 -14 37 -17 0 -20 5 -17 34 2
26 0 33 -11 29 -10 -4 -14 3 -14 25 0 21 -6 32 -19 37 -14 4 -18 13 -15 30 3
20 0 25 -16 25 -13 0 -20 7 -20 19 0 13 -5 18 -17 15 -12 -3 -22 3 -28 18 -10
22 -35 28 -75 17 -34 -9 -20 17 20 38 51 27 110 24 176 -8z m994 5 c49 -20 44
-36 -8 -22 -47 13 -54 17 -47 29 8 12 8 12 55 -7z m33 -53 c4 -1 7 -5 7 -11 0
-12 -77 -13 -84 -1 -3 4 -4 10 -1 13 3 3 51 3 78 -1z m-1436 -664 c10 4 14 2
11 -7 -2 -7 -14 -17 -26 -21 -19 -7 -22 -5 -22 20 0 34 14 51 18 23 2 -14 8
-19 19 -15z m825 -18 c16 -12 27 -24 24 -27 -7 -7 -76 30 -76 40 0 14 21 9 52
-13z m-145 -51 c32 -15 58 -37 51 -44 -7 -6 -97 39 -98 49 0 10 15 9 47 -5z
m6 -63 c32 -16 49 -35 32 -35 -15 0 -105 52 -105 60 0 10 12 6 73 -25z"/>
<path d="M1769 1733 c-5 -14 -8 -32 -5 -39 3 -8 -2 -17 -11 -22 -9 -6 -11 -12
-6 -15 6 -4 9 -19 7 -35 -2 -22 3 -32 25 -45 38 -22 48 -21 66 6 13 21 13 29
-1 77 -17 57 -41 100 -55 100 -5 0 -14 -12 -20 -27z"/>
<path d="M2010 1513 c-29 -10 -40 -33 -28 -59 13 -27 40 -37 78 -30 14 2 29 5
34 5 5 1 6 16 2 34 -9 47 -41 66 -86 50z"/>
</g>
</svg>
